<svg xmlns="http://www.w3.org/2000/svg" viewBox="0 0 256 256" role="img" aria-labelledby="title desc">
  <title id="title">SoulSafe Icon</title>
  <desc id="desc">Shield with an S-shaped path and a lock center representing secure memories.</desc>
  <defs>
    <linearGradient id="bg" x1="0" y1="0" x2="1" y2="1">
      <stop offset="0%" stop-color="#0f766e" />
      <stop offset="55%" stop-color="#14b8a6" />
      <stop offset="100%" stop-color="#f59e0b" />
    </linearGradient>
    <linearGradient id="accent" x1="0" y1="0" x2="1" y2="0">
      <stop offset="0%" stop-color="#fef3c7" />
      <stop offset="100%" stop-color="#fde68a" />
    </linearGradient>
  </defs>

  <rect x="8" y="8" width="240" height="240" rx="56" fill="url(#bg)" />

  <path
    d="M128 46c-28 16-54 21-74 24v48c0 48 26 77 74 92 48-15 74-44 74-92V70c-20-3-46-8-74-24Z"
    fill="rgba(255,255,255,0.14)"
    stroke="rgba(255,255,255,0.5)"
    stroke-width="8"
    stroke-linejoin="round"
  />

  <path
    d="M168 83c-9-7-21-11-34-11-25 0-43 13-43 32 0 12 7 22 20 27l22 9c8 3 12 8 12 14 0 8-7 13-18 13-13 0-24-6-32-15"
    fill="none"
    stroke="url(#accent)"
    stroke-width="13"
    stroke-linecap="round"
    stroke-linejoin="round"
  />

  <rect x="111" y="111" width="34" height="26" rx="6" fill="#042f2e" opacity="0.95" />
  <path d="M118 111v-8a10 10 0 0 1 20 0v8" fill="none" stroke="#a7f3d0" stroke-width="6" stroke-linecap="round" />
</svg>
